<svg id="Layer_1" data-name="Layer 1" xmlns="http://www.w3.org/2000/svg" viewBox="0 0 1493.83 1458.76"><defs><style>.cls-1{fill:#fff;}</style></defs><path class="cls-1" d="M1548,734.14c9.22,0,17.28,4,22.1,11,6.41,9.3,6.61,23.18.55,39.07l-.24.63-.2.64-114.51,378.88c-9.09,30-19.92,54.83-33.12,75.77a199.7,199.7,0,0,1-54.31,57.64l-161.63,114.48c-22.71,16.09-34.11,37.21-32.09,59.49l4.58,50.53a6.09,6.09,0,0,1-1.45,3.9l-210.9,11.35q-1,.06-2,.06c-4.13,0-5.69-.8-5.83-.95s-1.51-1.78-2.13-8.6c-3.24-35.38,2.33-99,5.65-137,1.3-14.79,2.23-25.48,2.38-31.12.84-32.27,9.69-61.85,26.3-87.91,15-23.59,36.6-44.1,62.37-59.32,18-10.6,39.15-16.4,61.6-22.55,18.12-5,36.85-10.09,54.42-18.07l.27-.12.27-.14L1259,1128l.06,0,0,0a30.84,30.84,0,0,1,13.76-3.53h0c11.6,0,20.1,8.18,23.09,15.79,1.88,4.78,2.74,11.76-3.8,17.84l-.64.6-.58.65-60.5,67.51a42.36,42.36,0,0,1-18.25,12.47l-115.33,41.31a27.12,27.12,0,0,0-18.91,30.27,27.81,27.81,0,0,0,27.49,24.15,30,30,0,0,0,10.58-2l119.36-40c13.17-4.42,29.5-15.34,39.71-26.55l60.92-66.92c24.43-26.74,28.88-59,13.43-88.14l12.15-5.63,6.68-3.1,2.84-6.79,139.52-332.77c8.15-18.15,22.1-29,37.35-29m0-19c-20.28,0-42.29,12.39-54.78,40.42l-139.61,333-32.81,15.23c25.85,28.09,23,59,1.2,83l-60.94,67c-7.57,8.32-21,17.75-31.7,21.33l-119.77,40.15a11.16,11.16,0,0,1-4.13.86c-9.39,0-12.78-14.32-2.53-17.41l115.68-41.43a61.42,61.42,0,0,0,26-17.68l60.5-67.51c26.17-24.3,3-66.57-32.21-66.56a49.52,49.52,0,0,0-22.27,5.54l-88.92,43.82c-37.18,16.89-82.16,20.5-117.82,41.56-54.57,32.22-96,88-98,163.1-.49,19.08-12.58,119.9-8,170.35,1.47,16,7.67,26.81,26.88,26.81,1,0,2,0,3-.09l211.77-11.39c11.32-.6,19.51-13.26,18.48-24.55l-4.58-50.53c-1.59-17.53,9.79-32.09,24.15-42.26l161.63-114.49c49.92-35.35,76.94-84.86,94.63-143.41L1588.37,791c17.78-46.65-9.26-75.87-40.4-75.87Zm-95.82,61.54c-18,0-34.12,18.63-47.62,52.14l-110.1,255.67,45.94-18.58,123-286.87a29.23,29.23,0,0,0-11.24-2.36Z" transform="translate(-100.2 -97.85)"/><path class="cls-1" d="M146.26,715.14v19c15.25,0,29.2,10.83,37.35,29l139.52,332.77,2.85,6.79,6.68,3.1,12.14,5.63c-15.45,29.19-11,61.39,13.41,88.11l60.94,67c10.21,11.21,26.54,22.13,39.72,26.55l119.36,40a29.93,29.93,0,0,0,10.58,2,27.81,27.81,0,0,0,27.48-24.15,27.11,27.11,0,0,0-18.91-30.27l-115.3-41.3a42.36,42.36,0,0,1-18.27-12.48l-60.5-67.51-.58-.65-.64-.6c-6.55-6.08-5.69-13.06-3.81-17.84,3-7.61,11.49-15.79,23.1-15.79a30.8,30.8,0,0,1,13.75,3.53l.06,0,.05,0,88.93,43.81.26.14.28.12c17.56,8,36.29,13.11,54.41,18.07,22.45,6.15,43.65,11.95,61.6,22.55,25.77,15.22,47.34,35.73,62.37,59.32,16.61,26.06,25.46,55.64,26.31,87.91.14,5.64,1.08,16.33,2.37,31.12,3.33,38,8.9,101.62,5.65,137-.62,6.81-2.06,8.52-2.13,8.59s-1.7.95-5.83.95c-.62,0-1.29,0-2-.06L516.58,1526.2a6.1,6.1,0,0,1-1.45-3.91l4.58-50.52c2-22.28-9.37-43.4-32.09-59.49L326,1297.8a199.67,199.67,0,0,1-54.3-57.64c-13.21-20.94-24-45.72-33.12-75.77L124.05,785.51l-.19-.64-.24-.63c-6.06-15.9-5.87-29.77.54-39.08,4.82-7,12.88-11,22.1-11v-19m0,0c-31.14,0-58.19,29.22-40.41,75.87l114.52,378.88C238.08,1228.44,265.1,1278,315,1313.3l161.63,114.49c14.36,10.17,25.74,24.73,24.15,42.26l-4.58,50.53c-1,11.29,7.16,24,18.48,24.55l211.78,11.39c1,.06,2,.09,3,.09,19.21,0,25.42-10.79,26.88-26.81,4.63-50.45-7.46-151.27-8-170.35-2-75.11-43.44-130.88-98-163.1-35.65-21.06-80.63-24.67-117.82-41.56L443.64,1111a49.45,49.45,0,0,0-22.26-5.54c-35.22,0-58.38,42.26-32.22,66.56l60.5,67.51a61.49,61.49,0,0,0,26,17.68l115.68,41.43c10.25,3.09,6.87,17.41-2.52,17.41a11.08,11.08,0,0,1-4.13-.86L464.9,1275c-10.65-3.58-24.12-13-31.7-21.33l-60.94-67c-21.85-23.91-24.64-54.87,1.2-83l-32.81-15.23L201,755.56c-12.49-28-34.5-40.41-54.77-40.42Zm95.81,61.54A29.27,29.27,0,0,0,230.84,779l123,286.87,45.95,18.58L289.7,828.82c-13.49-33.51-29.65-52.14-47.62-52.14Z" transform="translate(-100.2 -97.85)"/><path class="cls-1" d="M999.82,567.18l-46,53.41H870.23L904,567.18h95.8m-171.16,0-36.09,53.41H679L688.08,610l29.81-34.59,7.13-8.27H828.66m208.47,49.55V877.56l-9.08,10.52-29.42,34.06-3.87,4.48V666l42.37-49.23m-103,64.46V968.83H649.1V681.19H776.21l-2.58,35.92a19,19,0,0,0,33.43,13.67l2.7-3.18,2.6,2.36a19,19,0,0,0,31.77-14.08V681.19h90m107.08-133H893.56l-57.83,91.41H962.56l78.68-91.41Zm-176.81,0H716.31Q695,572.9,673.69,597.63l-36.19,42H802.66l61.77-91.41Zm191.7,17.35-80.37,93.38V977.67q18.62-21.52,37.24-43.11,21.54-24.91,43.13-49.93V565.53Zm-103,96.66h-128v53.69L808,700.34l-15.42,18.14,4-56.29H630.1V987.83H953.16V662.19Z" transform="translate(-100.2 -97.85)"/><path class="cls-1" d="M847.12,116.85A55.59,55.59,0,0,1,866.34,224.6a19,19,0,0,0-12.43,17.82V375.55H840.32V242.42a19,19,0,0,0-12.43-17.82,55.59,55.59,0,0,1,19.23-107.75m0-19a74.59,74.59,0,0,0-25.8,144.57V394.55h51.59V242.42A74.59,74.59,0,0,0,847.12,97.85Z" transform="translate(-100.2 -97.85)"/><path class="cls-1" d="M468.93,273.5a55.19,55.19,0,0,1,39.3,16.28,55.8,55.8,0,0,1,11.19,62.59,19,19,0,0,0,3.81,21.4l94.13,94.13-9.6,9.61-94.14-94.14a19,19,0,0,0-21.39-3.81,56,56,0,0,1-23.3,5.09,55.58,55.58,0,0,1,0-111.15m0-19a74.58,74.58,0,1,0,31.26,142.31L607.76,504.38l36.47-36.48L536.67,360.33A74.59,74.59,0,0,0,468.93,254.5Z" transform="translate(-100.2 -97.85)"/><path class="cls-1" d="M312.29,651.68A55.79,55.79,0,0,1,364.45,688a19,19,0,0,0,17.83,12.43H515.4v13.59H382.28a19,19,0,0,0-17.83,12.43,55.58,55.58,0,1,1-52.16-74.8m0-19a74.58,74.58,0,1,0,70,100.37H534.4V681.46H382.28a74.61,74.61,0,0,0-70-48.78Z" transform="translate(-100.2 -97.85)"/><path class="cls-1" d="M1382,651.68a55.58,55.58,0,1,1-52.17,74.8A19,19,0,0,0,1312,714.05H1178.83V700.46H1312A19,19,0,0,0,1329.78,688,55.8,55.8,0,0,1,1382,651.68m0-19a74.61,74.61,0,0,0-70,48.78H1159.83v51.59H1312a74.58,74.58,0,1,0,70-100.37Z" transform="translate(-100.2 -97.85)"/><path class="cls-1" d="M1225.3,273.5a55.58,55.58,0,1,1,0,111.15,56.08,56.08,0,0,1-23.3-5.09,19,19,0,0,0-21.39,3.81l-94.13,94.14-9.61-9.61L1171,373.77a19,19,0,0,0,3.82-21.4A55.78,55.78,0,0,1,1186,289.78a55.2,55.2,0,0,1,39.3-16.28m0-19a74.58,74.58,0,0,0-67.73,105.83L1050,467.9l36.48,36.48L1194,396.81A74.59,74.59,0,1,0,1225.3,254.5Z" transform="translate(-100.2 -97.85)"/></svg>