<svg id="Layer_1" data-name="Layer 1" xmlns="http://www.w3.org/2000/svg" viewBox="0 0 889.91 746.47"><defs><style>.cls-1{fill:#5ebb49;}</style></defs><g id="LOGO_2" data-name="LOGO 2"><path d="M218.3,581.24q10,0,15.25,6.37t5.28,22.49a81.84,81.84,0,0,1-.75,12,18.77,18.77,0,0,1-2.69,7.8,13.11,13.11,0,0,1-3.59,3.86,41.88,41.88,0,0,1-4.63,2.35q8.07,2.19,11.16,6.88t3.09,18q0,18.63-5.33,25.43t-16.79,6.8H155.22v-112Zm.1,33.9q0-5.7-1.94-7.55a8,8,0,0,0-5.73-1.85H175.45v19.47h34.88q4,0,6-1.84T218.4,615.14Zm2.69,41.79a12.29,12.29,0,0,0-1.74-7c-1.17-1.67-3.44-2.51-6.83-2.51H175.45v20.47h36.77a14.54,14.54,0,0,0,6.18-1.25Q221.08,665.33,221.09,656.93Z" transform="translate(-155.04 -6.31)"/><path d="M257.36,693.19v-112h20.23v112Z" transform="translate(-155.04 -6.31)"/><path d="M380.33,630.08l.1,23.5q0,20.64-4.24,30.63t-16.49,10l-10.56.16-12.06-.16L326.62,694q-11.46,0-18.19-2.6t-10.66-11.5q-3.94-8.89-3.94-27.19l-.2-14.1q0-32.73,4.79-45.32t22.52-12.59l15.14-.5,5.58-.17,13.56.5q13.15,0,19.08,7.64t5.93,29.46v2H360.4a29.62,29.62,0,0,0-.7-6.88,6.21,6.21,0,0,0-2.59-4,9.66,9.66,0,0,0-3.64-1.43,39.2,39.2,0,0,0-5-.25L325,606.92q-7.17,0-9.06,5.87t-1.9,19.81V643q0,11.58,1.9,17.21c1.26,3.75,3.05,5.87,5.38,6.38a46.82,46.82,0,0,0,5.38.92c1.26.11,2.85.17,4.78.17l18,.16a11,11,0,0,0,8-2.85q2.94-2.85,2.94-10.74l-.1-3.19H334.79v-21Z" transform="translate(-155.04 -6.31)"/><path d="M514.65,693.19V607.92l-29.29,85.27H469.11l-29-85.27v85.27h-19v-112h30.86l25.33,74.49,25.6-74.49h30.92v112Z" transform="translate(-155.04 -6.31)"/><path d="M634.37,590.13a18.15,18.15,0,0,0-3.37-3.84q-1.11.87-2.28,1.71c-1.9,1.37-3.72,2.56-5.49,3.72-2.64,1.73-5.13,3.36-8,5.59a37.47,37.47,0,0,0-9.11,10.12,28.65,28.65,0,0,1,6.48.83,8.12,8.12,0,0,1,5,3.46c1.13,1.73,1.88,4.43,2.25,8.07s.54,8.06.54,13.22l-.19,15.15q0,12.29-3.74,15.4t-12.31,3.11l-10.36.17L583,666.51q-8.47,0-10.62-5.39t-2.14-20.88v-7.57q0-5,.55-12.71t4.14-10q3.59-2.36,10.46-2.36l8.7-.07a35.13,35.13,0,0,0-7.52-8.89,108.53,108.53,0,0,0-9.48-6.78,117.45,117.45,0,0,1-10.25-7.33c-.71-.56-1.41-1.14-2.09-1.73a21.88,21.88,0,0,0-2.54,1.13,10.31,10.31,0,0,0-1,.55,15.6,15.6,0,0,0-6.23,6.59q-5.19,10.49-5.19,44.56l.2,20.65q0,19.63,6.28,28.45t17.84,8.81l13.75.84,6.38-.17,15.24-.5q21,0,26.21-11.84t5.18-46.74v-5.37Q640.9,600,634.37,590.13Z" transform="translate(-155.04 -6.31)"/><path d="M715.78,693.19l-40-84.09v84.09h-19v-112H689l40,83.92V581.24h19v112Z" transform="translate(-155.04 -6.31)"/><path d="M796,623.37l27.42-42.13H851.3l-38.15,55.38,42.31,56.57h-29.7L796,650.56H785.59v42.63H765.36v-112h20.23v42.13Z" transform="translate(-155.04 -6.31)"/><path d="M940.84,581.24v25.51H886.93v19.13h50.33V648H886.93v19.8h53.91v25.35H866.7v-112Z" transform="translate(-155.04 -6.31)"/><path d="M1044.78,581.24l-37.37,73v38.94H987.08V654.25l-38-73h25.57l22.52,46.15,22.32-46.15Z" transform="translate(-155.04 -6.31)"/><path class="cls-1" d="M421,741.23,155,738.73,421,736.23a2.5,2.5,0,0,1,.05,5Z" transform="translate(-155.04 -6.31)"/><path class="cls-1" d="M779,736.23l265.92,2.5L779,741.23a2.5,2.5,0,0,1,0-5Z" transform="translate(-155.04 -6.31)"/><path d="M470.91,717.2c3.53,0,6.22.67,8.09,2s2.8,3.7,2.8,7.09a15.8,15.8,0,0,1-.39,3.78,4.73,4.73,0,0,1-1.43,2.45,6.31,6.31,0,0,1-1.9,1.22c-.59.21-1.4.46-2.46.74q4.28.69,5.92,2.16t1.64,5.66c0,3.91-.95,6.58-2.83,8s-4.86,2.14-8.91,2.14h-34V717.2Zm.06,10.68a2.51,2.51,0,0,0-1-2.38,6.42,6.42,0,0,0-3-.58H448.19v6.13h18.5a6.87,6.87,0,0,0,3.19-.58C470.61,730.08,471,729.22,471,727.88ZM472.39,741a2.76,2.76,0,0,0-.92-2.22c-.62-.53-1.82-.79-3.62-.79H448.19v6.45h19.5a12.48,12.48,0,0,0,3.28-.4C471.92,743.82,472.39,742.8,472.39,741Z" transform="translate(-155.04 -6.31)"/><path d="M524.45,717.2q6.34,0,9.07,2.46t2.72,8.7a26.35,26.35,0,0,1-.27,4.07,7.63,7.63,0,0,1-1.05,2.93,5.53,5.53,0,0,1-1.85,1.85,28.63,28.63,0,0,1-4.44,1.72,10.93,10.93,0,0,1,5.44,1.87c1.16.94,1.75,2.57,1.75,4.89v6.77H524.93v-3.39a15.15,15.15,0,0,0-.45-4.12q-.45-1.53-4.2-1.53H502.36v9H491.63V717.2ZM520,734.86c2.43,0,3.95-.3,4.55-.9s.89-1.94.89-4a7.33,7.33,0,0,0-.34-2.59,2,2,0,0,0-1.43-1.16,9.51,9.51,0,0,0-1.77-.37c-.46,0-1-.05-1.64-.05H502.36v9.09H520Z" transform="translate(-155.04 -6.31)"/><path d="M554.1,752.46H542.27l19.65-35.26H576.4l19.23,35.26h-11.8l-3.32-6.4h-23Zm7.28-13.69h15.38L569.14,724Z" transform="translate(-155.04 -6.31)"/><path d="M633.24,752.46,612,726v26.48h-10.1V717.2H619l21.24,26.43V717.2h10.09v35.26Z" transform="translate(-155.04 -6.31)"/><path d="M690.61,717.2q9.57,0,12.85,3.18t3.27,12.68v4.07c0,1.66,0,2.82-.08,3.49s-.25,2-.6,4.09a8.58,8.58,0,0,1-3.65,5.42,12.73,12.73,0,0,1-7.82,2.33h-35V717.2Zm5.29,17.74v-.32q0-5.16-1.16-7t-6.24-1.79H670.27v17.92h18.07c3.31,0,5.4-.62,6.26-1.84S695.9,738.38,695.9,734.94Z" transform="translate(-155.04 -6.31)"/><path d="M725.34,741.78c0,1.45.48,2.35,1.45,2.72a11.71,11.71,0,0,0,4,.56l5.08.05,7.18-.21c2,0,3.26-.25,3.86-.74a2.84,2.84,0,0,0,.9-2.33,2.77,2.77,0,0,0-1-2.27c-.69-.56-2-.84-3.94-.84h-1.74l-17.65-.37c-3.32,0-5.65-.84-7-2.51s-2-4.24-2-7.69a14.74,14.74,0,0,1,1.29-6.82,7,7,0,0,1,4.71-3.31,42.44,42.44,0,0,1,8.93-1c3.68-.1,6.16-.15,7.42-.15l7.51.1a30.08,30.08,0,0,1,7.24.71,6,6,0,0,1,3.88,2.62,11.28,11.28,0,0,1,1.46,3.44,22.1,22.1,0,0,1,.31,4.22H746.69a2.91,2.91,0,0,0-1.09-2.59,5.34,5.34,0,0,0-3-.74l-5.18-.05-8.2.27a5.87,5.87,0,0,0-2.77.6,2.14,2.14,0,0,0-1.14,2,2.51,2.51,0,0,0,1.35,2.56,9,9,0,0,0,3.67.61h1.11l7.19.11,7.08,0q6.83,0,9.91,2.14t3.09,8.59c0,4.15-.92,7-2.77,8.56s-4.91,2.32-9.17,2.32l-13.74.37-7.19-.15c-3.8,0-6.61-.62-8.4-1.85s-2.7-3.72-2.7-7.46V741.2h10.57Z" transform="translate(-155.04 -6.31)"/><path class="cls-1" d="M842.39,173.67A258.85,258.85,0,0,0,652.15,11.58a259.72,259.72,0,0,0-154.43,15.7,258.25,258.25,0,0,0-133.37,344.4,254.87,254.87,0,0,0,13.74,26.14h0c1.58,2.62,3.2,5.22,4.87,7.77a84.4,84.4,0,0,1,4.21-9.64c-2.24-4.23-4.37-8.53-6.35-12.88q-3.49-7.66-6.45-15.55c-.57-1.54-1.14-3.09-1.67-4.64-.73-2.08-1.44-4.17-2.11-6.26a242.36,242.36,0,0,1-11.14-82.54A241.36,241.36,0,0,1,511.16,59.71,233.79,233.79,0,0,1,554.76,47,239.44,239.44,0,0,1,729.24,80.57a241.8,241.8,0,0,1,89.47,102.91,240.84,240.84,0,0,1,10.59,173q-1,3.19-2.12,6.37c-.56,1.56-1.11,3.13-1.7,4.68q-2.93,7.86-6.41,15.49-3,6.67-6.51,13.17a73.05,73.05,0,0,1,4.3,9.67c1.66-2.54,3.28-5.11,4.83-7.72A258.74,258.74,0,0,0,851.9,324.2a259.38,259.38,0,0,0-9.51-150.53Z" transform="translate(-155.04 -6.31)"/><path d="M562.22,583.92a10.31,10.31,0,0,0-1,.55c.58.09,1.18.17,1.77.23Zm37.64,23.55.32.58c.1-.2.19-.4.29-.59Z" transform="translate(-155.04 -6.31)"/><path d="M831.09,368.91a43.8,43.8,0,0,0-1.8-5.32c-3.87-9.5-10.8-17.61-18.94-23.79a57.58,57.58,0,0,0-18.12-9.25c3.93-1.44,8.31-2.25,12.43-.88,6.56,2.13,12.12,6.5,16.56,11.68a63.46,63.46,0,0,0-13.12-21.93A39.74,39.74,0,0,0,792,308.37c-.43-12.12-3.36-24.49-10.55-34.43,3.26-2.68,5.81-6,8.74-8.92a93.56,93.56,0,0,0-9.61-13.63,49,49,0,0,0-25.3-15.56c-11.25-3-23-1.87-34.25.14a147,147,0,0,0-38.92,13.29c3.44-7.11,10.44-11.92,17.82-14.24a56.23,56.23,0,0,0-11.38.38,99,99,0,0,0-36.11,12.49,46.94,46.94,0,0,1,7.75-5.74,127.82,127.82,0,0,1,33.3-14.68,118.06,118.06,0,0,1,38.73-4.63c11.74.81,23.56,3.44,34,9.18a64.45,64.45,0,0,1,23.74,22.13c-1.81-10.81-7.81-20.44-14.94-28.49a90.5,90.5,0,0,0-28.67-21.18c-1.81-.88-3.87-1.38-5.5-2.57a68.13,68.13,0,0,1,17,.94c10.81,1.94,21.62,5.74,30.31,12.62a64,64,0,0,0-18.12-26c-1.69-1.37-3.63-2.56-5.24-4a32.2,32.2,0,0,1,12.92,3.5c-4.24-13.69-15.62-23.8-27.74-30.68-13.61-7.49-28.93-11.56-44.35-12.93a91.23,91.23,0,0,0-15.93-.38,109.25,109.25,0,0,1,30.61-3.36,83,83,0,0,1,23.55,3.8,105.84,105.84,0,0,0-61.6-21.68,108.59,108.59,0,0,0-43.55,8.63c9-11.69,22.75-19.5,37.18-22.37,2.31-.5,4.75-.37,7-.94-9.36-3.24-19.73-3.18-29.48-1.49-21.74,4-40.73,17.8-53.61,35.48-10.55-14.68-25.35-26.62-42.6-32.62-12.81-4.3-27.06-5.49-40.05-1.31,2.38.38,4.69.51,7.07,1a61.66,61.66,0,0,1,37.23,22.11c-17.68-7.12-37.17-10.06-56-7.43a106.22,106.22,0,0,0-49.36,20.73c9.44-3.12,19.49-4.05,29.43-3.93,8.18,0,16.25,1.56,24.24,2.94-19,.37-38.37,3.12-55.66,11.44-9.31,4.43-17.94,10.55-24.37,18.67a41.14,41.14,0,0,0-7.87,14.63,30.58,30.58,0,0,1,13.05-3.76c-10.87,7-18.74,18-23.24,30a47.13,47.13,0,0,1,6.43-4.44c12.5-7.12,27.24-10,41.49-9.12a40.85,40.85,0,0,1-4.75,2.19,91.29,91.29,0,0,0-27.3,19.05c-8.31,8.57-15.18,19.12-17.31,31.06a63.32,63.32,0,0,1,21.88-21.5c14.92-8.5,32.66-10.93,49.59-9.56a136.79,136.79,0,0,1,49.93,14.43c5.56,3.14,11.31,6.2,16.11,10.43a112.65,112.65,0,0,0-34.79-12.36c-4.5-.56-9.13-1.25-13.62-.5,7.74,1.69,15.11,6.8,18.67,14-16.23-7.74-33.79-13.17-51.72-14.86-13.07-1-27.06,1.06-37.87,8.92-7.86,5.57-13.67,13.57-18.36,21.88,3.06,2.8,5.63,6.06,8.49,9.06a61.31,61.31,0,0,0-10.24,34.29,37.44,37.44,0,0,0-9.63,5.07c-9.36,6.74-15.42,17-20,27.36h1.63l-.5-.76c4.63-5.18,10.5-9.87,17.55-10.93,3.63-.62,7.25.26,10.69,1.5-13.43,3.43-25,12.56-32.61,24a56.17,56.17,0,0,0-4.81,9.11,42.75,42.75,0,0,0-3.37,18.07A50.33,50.33,0,0,1,372.69,370a51.1,51.1,0,0,1,10.14-11.69c9.56-8.3,22.24-12.18,34.74-12.92-7.81,3.94-14.49,9.74-20.37,16.06a74.25,74.25,0,0,0-16.38,28.74c-.25.83-.46,1.66-.67,2.49A65.36,65.36,0,0,0,378.09,405v0A53.32,53.32,0,0,0,380,423.89c.57-2.5.87-5,1.68-7.44.39-1.25.82-2.48,1.26-3.71a83.64,83.64,0,0,1,4.21-9.64,84.9,84.9,0,0,1,31.65-34A125.23,125.23,0,0,0,401,397.58a153.29,153.29,0,0,0-6.74,17.88c-1,3.23-1.86,6.51-2.6,9.8s-1.37,6.73-1.84,10.12c-2.13,14.68-1.95,29.93,2.06,44.3A75.69,75.69,0,0,0,405,505.61c-4.85-19.31-2.1-39.68,4.92-58.17.75-2,1.54-3.94,2.39-5.87,0-.07.07-.16.11-.23,4.84-10.86,10.88-21.39,18.7-30.39-.31.76-.69,1.44-1.07,2.19a122.7,122.7,0,0,0-13.42,33.27c-.53,2.2-1,4.41-1.39,6.65a104.17,104.17,0,0,0-.55,33.8c3.42,23.43,15,45.23,30.74,62.72a200.31,200.31,0,0,1-8.76-58.66,164.19,164.19,0,0,1,1.26-17.29c.19-1.57.42-3.12.67-4.68a115.36,115.36,0,0,1,4.64-18.7,92.31,92.31,0,0,0-1.48,21.5c.08,1.73.22,3.47.4,5.21q.48,4.52,1.39,9c4.31,21.81,16.11,41.49,31.11,57.66a120.83,120.83,0,0,0,20,17.68c-13.18-18.24-24.48-38.6-28.42-61-.41-2.42-.72-4.85-.9-7.28-.1-1.09-.16-2.2-.2-3.29a105.85,105.85,0,0,1,5-34.66c0,1.75-.13,3.44-.25,5.19A135,135,0,0,0,473,494.74c.23,1,.47,2.09.74,3.13A153.5,153.5,0,0,0,491,539.72a164.29,164.29,0,0,0,21.24,29,83.66,83.66,0,0,1,10-27.5c1.75,11.94,6.88,23.68,15.82,32a43.17,43.17,0,0,0,23.15,11.27,10.31,10.31,0,0,1,1-.55,44.36,44.36,0,0,1-7.27-8.85c-5.93-9.43-7.62-21-6.25-31.93,1.51,14.82,9.75,28.37,21.3,37.49l.74.6c6.09,4.89,13,8.54,19,13.53a38.24,38.24,0,0,1,7.4,8.26c1,1.43,1.87,2.92,2.71,4.45h.61a34.75,34.75,0,0,1,2.59-4.46,43.6,43.6,0,0,1,9.12-9.62c5-3.94,9.12-6.19,13.61-9.43l.77-.56c7.14-5.28,13.58-11.78,18-19.56a54,54,0,0,0,6.56-20.55c2.56,14.92-2.5,31.61-14.43,41.35,13.24-.88,25.42-8.75,32.61-19.67,4.75-7,7.37-15.25,8.81-23.56A77,77,0,0,1,688,568.45a151.37,151.37,0,0,0,29.48-44.72,140.62,140.62,0,0,0,8.76-25.88c.26-1,.49-2.08.69-3.14a141.45,141.45,0,0,0,3.05-26.22c.2-4.43-.31-8.87-.12-13.31.38,1.57.68,3.06,1.12,4.57a94.33,94.33,0,0,1,3.79,29.92c-.05,1.1-.1,2.19-.19,3.28l0,.54a108.48,108.48,0,0,1-7.57,29.92A181.65,181.65,0,0,1,705.7,561.2c3.56-2.06,6.56-5,9.75-7.55,16.93-15.24,30.74-34.37,38.11-56a102.16,102.16,0,0,0,4.36-20.75c.17-1.75.31-3.51.37-5.27a82.34,82.34,0,0,0-.55-13.77c-.3-2.37-.94-4.75-1.06-7.18a105.75,105.75,0,0,1,4.59,18.31c.27,1.58.49,3.16.68,4.74a150.1,150.1,0,0,1,1,22.73c-.61,18-3.18,36.06-8.62,53.24A124.31,124.31,0,0,0,776.43,516a108.49,108.49,0,0,0,9.48-52,101.63,101.63,0,0,0-1.34-10.88c-.39-2.25-.87-4.49-1.4-6.72A127,127,0,0,0,768.37,411a117.88,117.88,0,0,1,18.94,30.53c.89,2,1.73,4.11,2.51,6.19.21.52.41,1.05.6,1.57,6.62,17.94,8.86,37.81,4.43,56.55a79.21,79.21,0,0,0,14.87-34.73c2.54-15.06,1.61-30.51-1.7-45.39-.74-3.34-1.61-6.64-2.58-9.91-.46-1.58-1-3.13-1.47-4.68a135.07,135.07,0,0,0-23.3-41.79A86.72,86.72,0,0,1,806.16,393a88.52,88.52,0,0,1,6.4,10.34,73.19,73.19,0,0,1,4.3,9.67,67.41,67.41,0,0,1,3,11,61.13,61.13,0,0,0,1.84-18.76,65.53,65.53,0,0,0-2.62-15.12,63.74,63.74,0,0,0-3.22-8.66,82.4,82.4,0,0,0-33.74-36.24c11.81,1.07,23.75,4.43,33.11,11.88a48.86,48.86,0,0,1,12,12.84,49.59,49.59,0,0,1,5.54,11.89C833.16,377.47,832.15,373.09,831.09,368.91ZM643.23,229.47v-.07c7.18-10.56,16.81-19.8,28.49-25.36,14.49-6.44,31-6.06,46.3-3.38C690.84,202,664.09,212,643.23,229.47Zm78.34-54.18a101.85,101.85,0,0,1,21.3,1.39A147.07,147.07,0,0,0,701,183.61,153.81,153.81,0,0,0,677,194c-6.18-1.25-12.56-2.38-18.81-1.44,6.19-4.06,13.13-6.74,20.06-9.18A154.65,154.65,0,0,1,721.57,175.29ZM535,169a115.61,115.61,0,0,1,35.8,20.49c12.32,10.31,21.82,23.56,29.43,37.61A115.4,115.4,0,0,1,639,181.55a108.78,108.78,0,0,1,32.8-14.81c-19.74,8.87-36.24,23.81-48.91,41.17C613.81,220.16,607,234,600.12,247.52a339.2,339.2,0,0,0-16.37-29.81,152.36,152.36,0,0,0-27.3-32,115.17,115.17,0,0,0-28.74-18.86A32.62,32.62,0,0,1,535,169Zm-78.27,7.75a106,106,0,0,1,28.8-.81,158,158,0,0,1,34.86,7.31c7.31,2.49,14.55,5.36,21,9.55a44.11,44.11,0,0,0-18.18,1.06c-1.43.57-2.68-.44-3.87-1A140.51,140.51,0,0,0,456.68,176.74Zm76.22,37.48a119.94,119.94,0,0,0-51.36-13.44c14.81-2.74,30.62-3,44.86,2.63,12.37,5.44,22.56,15.12,30.05,26.24A134.93,134.93,0,0,0,532.9,214.22ZM448.12,334.3a56.31,56.31,0,0,1-6.93-24.36,132.26,132.26,0,0,0,12.3,9.56c.19-9.44-1.63-19.19-6.68-27.31-1.75-2.38-3.81-5.12-6.93-5.44s-5.57,2.88-6.94,5.57c-2.32,4.81-2.76,10.31-2.44,15.55,1,15.06,7.81,29.05,16.31,41.23-.81,4.81-2.06,9.5-2.68,14.31a99.17,99.17,0,0,1-21.62-28.73c-4.57-9.38-8.44-19.44-8.5-30s2.74-19.87,8.86-27.6c5.32-6.7,13.94-11.13,22.63-10,7.11.69,13.43,5,17.68,10.62,5.05,6.68,8.31,14.63,10.43,22.75A74.4,74.4,0,0,0,448.12,334.3ZM687,515.75c-.11-.36-.24-.7-.36-1a40.63,40.63,0,0,0-8.07-13.17c-7.93-9.06-19.87-13.68-31.61-14.87A28.51,28.51,0,0,1,637.55,505c-4.13,3.63-9.75,6.06-15.26,4.82a18.7,18.7,0,0,1-7.67-4c1.75,6.5,1.37,13.37.74,20.06-2.37-5-5.87-9.81-11.05-12.06a11.82,11.82,0,0,0-10.57.94c-4.37,2.56-7.17,6.93-9.42,11.36,0-6.74-.75-13.61.93-20.24-3.69,3-8.62,4.88-13.43,4-6.81-1.25-12.49-6.12-15.81-12-2-3.44-2.8-7.37-3.44-11.31-9.36,1.25-18.93,3.94-26.3,10.06a40.84,40.84,0,0,0-12.61,18.18c-.13.34-.24.69-.34,1-.3.91-.55,1.85-.79,2.78,0-1,0-2,.08-3,0-.38,0-.77.06-1.16a57.63,57.63,0,0,1,6.36-23.8c5.31-9.8,14.55-16.93,24.68-21.36,13.93-6.26,29.17-8.82,44.23-9.88a179.88,179.88,0,0,1,40.48,1.87c11.93,2.07,23.93,5.25,34.55,11.44a46.56,46.56,0,0,1,19,19.87,61.13,61.13,0,0,1,5.61,21.73c0,.39.06.76.08,1.15.09,1.06.14,2.11.19,3.17C687.58,517.68,687.28,516.71,687,515.75Zm-7.49-50.07C665,457.94,649,453.43,632.8,450.75A205.65,205.65,0,0,0,555.33,453,139.67,139.67,0,0,0,521,465.31c-9.06,4.87-17.55,11-24.12,18.92,4.39-23.55,13.31-46.91,29.19-65.09a79.7,79.7,0,0,1,23.74-18.68c4.93,3.81,10.87,6,16.87,7.43-4.51-2.68-8.63-6.31-10.69-11.18A26.18,26.18,0,0,1,559,370.28c2.31-3.06,5.44-5.44,8.13-8.18,3.87-3.62,7.49-7.56,11.68-10.81,2.86-2.25,6.68-3.62,10.31-2.56s7.49,3.75,10.87,6.18a34.47,34.47,0,0,1,11-6.31c4.07-1.25,8.68,1.5,11.88,4.32,4.67,4.31,9.18,8.74,13.73,13.05a28.86,28.86,0,0,1,8,11.94A25.68,25.68,0,0,1,642.66,399c-2.12,3.87-5.74,6.57-9.36,8.93a47.61,47.61,0,0,0,17.05-7.55,84.49,84.49,0,0,1,17.18,12.18,103.55,103.55,0,0,1,19.37,25.05,146.56,146.56,0,0,1,16.24,46.6C696.64,476.42,688.27,470.42,679.46,465.68Zm39-105.33a55.11,55.11,0,0,0-23-3.5A26.65,26.65,0,0,1,688,376.6,45.7,45.7,0,0,1,708.88,401,35,35,0,0,0,690,388.15a29.53,29.53,0,0,0-23.5,4.68,9.62,9.62,0,0,0,.14-8.62,20.12,20.12,0,0,0-5-6.24c-11.56-10.81-23.3-21.56-35-32.24a44.81,44.81,0,0,0,27.73-1.19c13.51-5.12,24.68-15.43,32.31-27.61,2.88,4.81,5.3,9.94,6,15.49a35.83,35.83,0,0,0,2.24-17c-.81-8.19-5.18-16.12-12.36-20.37a26.89,26.89,0,0,0-23.94-1.37c-13.8,5.94-27.48,12.06-41.29,17.92-5.5,2.38-11.62,4.07-17.56,2.44-5.74,1.44-11.8.19-17.18-2.12-13.62-5.87-27.17-12.06-40.79-17.8-6.44-2.75-14-3.56-20.61-1a25.36,25.36,0,0,0-15.38,17.43,34.54,34.54,0,0,0,1.63,21.8c.44-5.63,3.12-10.68,5.56-15.68a70.11,70.11,0,0,0,25.74,25,46,46,0,0,0,34.36,4.12c-12,11.06-24.18,21.93-35.92,33.24-3.81,3.43-6.19,9.18-3.75,14.06a27.8,27.8,0,0,0-24.3-4.69c-7.51,1.87-13.69,7.06-18.56,12.94C494.6,391,502,381.84,511.9,376.6a32.17,32.17,0,0,1-5.74-9.32,29.86,29.86,0,0,1-1.57-10.37,53.73,53.73,0,0,0-31.11,7.93c3.95-6,9.56-11.11,16.43-13.55a23.38,23.38,0,0,0-14.68,6.81,28.85,28.85,0,0,1,13.43-15.93,67.18,67.18,0,0,1-.44-39.36c2.88-9.38,8.38-18.06,16.25-24a39,39,0,0,1,21-8.12c8.24-.69,16.49,1.12,24.17,4.06,16.86,6.25,33.49,13.12,50.16,19.86,13.57-5.24,27.06-10.74,40.61-16,8.75-3.18,17.5-7.18,26.87-7.87s18.24,1.31,25.74,6.32c9.12,5.86,15.37,15.48,18.62,25.73,4,12.75,3.5,26.62-.32,39.36a28,28,0,0,1,13.63,16c-4.07-3.69-9.06-6.62-14.68-7.05,2.49,1.43,5.24,2.43,7.55,4.17a41.53,41.53,0,0,1,8.75,9.2C723.88,363.17,721.38,361.34,718.51,360.35ZM630.3,316.06a52.07,52.07,0,0,1,6.12,0c.12,2.49.5,5.31,2.56,7a7.49,7.49,0,0,0,10.59-.41l0,0c1.69-1.75,2.13-4.19,2.19-6.56h6.38a15.19,15.19,0,0,1-3,10.18,13.64,13.64,0,0,1-11.63,5.56c-5.36-.18-10.11-4.06-12-8.94A17.41,17.41,0,0,1,630.3,316.06ZM569.56,316A16.11,16.11,0,0,1,563,329.61a13.11,13.11,0,0,1-13.31.88,14.88,14.88,0,0,1-7.93-14.25h6.55c-.06,3.12,1.07,6.56,4,8.06s8.38.31,10.19-3.25a12.68,12.68,0,0,0,.93-5.05ZM786,306.62c-.44,9.3-3.63,18.24-7.69,26.55a108.05,108.05,0,0,1-22.25,30.18c-.68-4.75-1.67-9.5-2.68-14.19,6.69-9.74,12.37-20.42,14.93-32,1.5-7.18,2.31-14.93-.06-22-1.13-3.12-2.93-6.36-6.06-7.81s-5.12.2-6.75,2c-4.69,4.87-6.93,11.56-8.12,18.12a53.64,53.64,0,0,0-.68,12.43c4.18-3.19,8.36-6.43,12.36-9.87a64.89,64.89,0,0,1-7.06,24.42c-4.93-13.49-14.12-25.3-25.36-34.11a54.61,54.61,0,0,1,10.8-23.49c5.19-6.62,13.75-10.81,22.25-9.81,7.56.81,14.25,5.5,18.62,11.56C784,286.63,786.35,296.81,786,306.62Z" transform="translate(-155.04 -6.31)"/><path d="M633.55,381a9.49,9.49,0,0,0-10.81-7.25c-3.13.63-5.31,3.13-7.56,5.25-3.94,3.75-7.62,7.81-12,11.12a5.31,5.31,0,0,1-6.56-.25c-5.12-4.06-9.62-8.74-14.37-13.18-2.37-2.25-5.74-3.75-9-2.75s-7.13,5.37-6.75,9.62a12.87,12.87,0,0,0,8.43,10.37c7.94,2.69,16,5.06,24,7.56a4.11,4.11,0,0,0,2.81-.12c7.06-2.13,14.06-4.37,21.12-6.62a20.45,20.45,0,0,0,6.75-3.19C632.55,389,634.42,384.9,633.55,381Z" transform="translate(-155.04 -6.31)"/></g></svg>