<svg id="Layer_1" data-name="Layer 1" xmlns="http://www.w3.org/2000/svg" viewBox="0 0 1585.75 1557"><defs><style>.cls-1{fill-rule:evenodd;}</style></defs><path class="cls-1" d="M476.11,578.79c-92.27,0-167.32,75.05-167.32,167.32s75,167.33,167.32,167.33,167.32-75.06,167.32-167.33-75-167.32-167.32-167.32ZM1167,701.33a135.22,135.22,0,0,0,115.76,204.46,136.33,136.33,0,0,0,33.29-4.15,135.1,135.1,0,1,0-149-200.31Zm-246.7,508.74c-59.31-1.2-108.59,46.21-109.78,105.5A107.79,107.79,0,0,0,916,1425.32h.13c.69,0,1.38,0,2.07,0a107.65,107.65,0,0,0,2.08-215.27ZM172.58,475.4l83.6,48.26a15.73,15.73,0,0,0,18.36-1.93,299.53,299.53,0,0,1,108-62.48,15.7,15.7,0,0,0,10.85-14.93V347.88H558.8v96.44a15.72,15.72,0,0,0,10.85,14.94,299.47,299.47,0,0,1,108,62.47A15.74,15.74,0,0,0,696,523.66l83.61-48.26,82.69,143.2L778.8,666.83a15.75,15.75,0,0,0-7.5,16.86,305.31,305.31,0,0,1,0,124.85,15.76,15.76,0,0,0,7.52,16.86l83.51,48.23-82.68,143.2-83.6-48.26a15.77,15.77,0,0,0-18.39,1.93,299.32,299.32,0,0,1-108,62.44,15.74,15.74,0,0,0-10.85,15v96.44H393.43v-96.44a15.75,15.75,0,0,0-10.85-15,299.3,299.3,0,0,1-108-62.44,15.73,15.73,0,0,0-18.36-1.93l-83.6,48.26L89.9,873.63l83.5-48.23a15.79,15.79,0,0,0,7.54-16.85,304.94,304.94,0,0,1,0-124.87,15.79,15.79,0,0,0-7.54-16.85L89.9,618.6ZM1518.75,835.89a15.73,15.73,0,0,0-14.15,10.62,237.24,237.24,0,0,1-49.72,83.25,15.72,15.72,0,0,0-2.18,18.34l35.38,63.41-107.93,60.19-35.38-63.49a15.71,15.71,0,0,0-13.76-8.06,15.5,15.5,0,0,0-3,.29,233.36,233.36,0,0,1-96.86-1.36,15.78,15.78,0,0,0-17,7.25l-37.24,62.35-106.07-63.37L1108,943a15.73,15.73,0,0,0-1.64-18.4,232.56,232.56,0,0,1-47.14-84.65,15.69,15.69,0,0,0-14.79-11.08l-72.67-1.07,1.82-123.55,72.54,1.06h.31a15.66,15.66,0,0,0,14.86-10.6,235.9,235.9,0,0,1,49.72-83.24,15.75,15.75,0,0,0,2.18-18.34l-35.38-63.42,107.9-60.19L1221.16,533a15.76,15.76,0,0,0,16.76,7.77,233.21,233.21,0,0,1,96.9,1.36,15.73,15.73,0,0,0,17-7.28L1389,472.53l106.11,63.33-37.24,62.36a15.76,15.76,0,0,0,1.63,18.41,232.52,232.52,0,0,1,47.14,84.64,15.71,15.71,0,0,0,14.79,11.08l72.68,1.07L1592.31,837Zm-415.83,329.76,42.41,77-45.78,25.25a15.76,15.76,0,0,0-7.87,16.69,178.32,178.32,0,0,1-1.44,73.13,15.77,15.77,0,0,0,7.2,17l44.74,27L1096.75,1477,1052,1449.9a15.74,15.74,0,0,0-18.41,1.58,175.73,175.73,0,0,1-64,35.3,15.76,15.76,0,0,0-11.18,14.74l-1,52.26-87.84-1.73,1-52.26A15.75,15.75,0,0,0,860,1484.62a175.39,175.39,0,0,1-62.52-37.85,15.74,15.74,0,0,0-18.34-2.29l-45.84,25.25-42.42-76.93,45.78-25.25a15.79,15.79,0,0,0,7.87-16.7,178.3,178.3,0,0,1,1.44-73.13,15.73,15.73,0,0,0-7.2-17l-44.74-27,45.46-75.2,44.78,27.07a15.76,15.76,0,0,0,18.43-1.58,175.43,175.43,0,0,1,64-35.3,15.72,15.72,0,0,0,11.14-14.75l1-52.25,87.85,1.72-1,52.26a15.74,15.74,0,0,0,10.56,15.17,175.57,175.57,0,0,1,62.55,37.85,15.7,15.7,0,0,0,18.33,2.29Z" transform="translate(-46.36 -34.85)"/><path class="cls-1" d="M474.92,1561.93a22.08,22.08,0,0,1-30,8.43A823,823,0,0,1,154.33,1295a22,22,0,0,1,37.19-23.63,778.4,778.4,0,0,0,275,260.55,22,22,0,0,1,8.44,30Zm1099-327.19a816.17,816.17,0,0,1-200.18,249,22,22,0,1,1-28.28-33.76,772,772,0,0,0,189.41-235.63,22,22,0,1,1,39,20.38ZM664.39,77.48a22,22,0,0,1,17.18-26,823.51,823.51,0,0,1,556.15,82.34,22,22,0,1,1-21,38.74C1103.9,111.27,976,78.9,846.75,78.9A782.53,782.53,0,0,0,690.38,94.63a22,22,0,0,1-26-17.15ZM1315.59,1406a722.75,722.75,0,0,0,177.3-220.59,22,22,0,1,0-39.05-20.39,679.72,679.72,0,0,1-166.54,207.22,22,22,0,0,0,28.29,33.76ZM1195.06,210.2a729.64,729.64,0,0,0-492.63-73,22,22,0,1,0,8.81,43.17A685.51,685.51,0,0,1,1174,248.9a22,22,0,0,0,21-38.7ZM522.77,1474.27a22,22,0,0,0-8.43-30,684.71,684.71,0,0,1-241.8-229.12,22,22,0,0,0-37.16,23.63,728.88,728.88,0,0,0,257.41,243.91,22,22,0,0,0,30-8.44ZM1586.12,830.59l-66.33-1a1.12,1.12,0,0,0-.32,0,22,22,0,0,0-20.83,14.88,230.8,230.8,0,0,1-48.39,81,22,22,0,0,0-3,25.67l32.31,57.93-96.94,54.05-32.31-58A22,22,0,0,0,1331,993.86a21.53,21.53,0,0,0-4.25.41,226.7,226.7,0,0,1-94.27-1.33,22.06,22.06,0,0,0-23.78,10.17l-34,56.95-95.27-56.92,34-56.92a22,22,0,0,0-2.3-25.77,225.93,225.93,0,0,1-45.87-82.37,22,22,0,0,0-20.7-15.51l-66.39-1,1.64-111,66.32,1h.31a22,22,0,0,0,20.83-14.85,229.61,229.61,0,0,1,48.39-81,22,22,0,0,0,3-25.68l-32.31-57.92,96.91-54.06,32.34,58A22,22,0,0,0,1239.13,547a226.16,226.16,0,0,1,94.3,1.32,22,22,0,0,0,23.79-10.2l34-56.91L1486.5,538l-34,57a22,22,0,0,0,2.3,25.77,226,226,0,0,1,45.87,82.37,22.06,22.06,0,0,0,20.7,15.51l66.39,1Zm24.32-154.67-72.94-1.1a269.12,269.12,0,0,0-39.27-70.54l37.35-62.55a22,22,0,0,0-7.61-30.21L1394.88,432a22,22,0,0,0-30.21,7.62l-37.34,62.55a268.79,268.79,0,0,0-80.74-1.13l-35.52-63.69a22,22,0,0,0-30-8.52l-135.38,75.51a22,22,0,0,0-8.5,30l35.5,63.65a275.63,275.63,0,0,0-41.41,69.32l-72.87-1.07h-.35a22,22,0,0,0-22,21.68l-2.3,155a22,22,0,0,0,21.71,22.34l72.9,1.07a270,270,0,0,0,39.3,70.54l-37.35,62.55a22,22,0,0,0,7.62,30.2l133,79.51a22,22,0,0,0,30.21-7.61L1238.6,1039a269.37,269.37,0,0,0,80.73,1.13l35.53,63.68a21.87,21.87,0,0,0,13.21,10.45,21.86,21.86,0,0,0,16.74-2l135.39-75.52a22,22,0,0,0,8.49-29.95L1493.2,943.2a275.57,275.57,0,0,0,23.25-33.13,271.23,271.23,0,0,0,18.16-36.18l72.87,1.07a21.58,21.58,0,0,0,15.67-6.23,21.93,21.93,0,0,0,6.67-15.48l2.3-155a22,22,0,0,0-21.68-22.34Zm-243.88,144.6A97.37,97.37,0,1,0,1306.78,865,96.64,96.64,0,0,0,1366.56,820.52Zm-11.07-171.31c-67-40-154-18.06-193.94,48.89a141.5,141.5,0,0,0,121.16,214,142.81,142.81,0,0,0,34.83-4.34,141.43,141.43,0,0,0,38-258.53Zm-389,718.87a69.3,69.3,0,0,1-49.81,19.51,69.89,69.89,0,0,1,1.35-139.76h1.41A70,70,0,0,1,988,1319.1a69.24,69.24,0,0,1-21.42,49Zm-46.16-164.3c-62.81-1.29-114.94,48.86-116.2,111.67a114,114,0,0,0,111.67,116.16c.75,0,1.54,0,2.32,0a113.94,113.94,0,0,0,2.21-227.86Zm176.13,58.59a22,22,0,0,0-11,23.37,172.55,172.55,0,0,1-1.39,70.55,22.06,22.06,0,0,0,10.07,23.81l39.36,23.79-38.92,64.44-39.42-23.82a22,22,0,0,0-25.77,2.2,169.49,169.49,0,0,1-61.7,34,22,22,0,0,0-15.64,20.64l-.91,46-75.26-1.48.91-46A22,22,0,0,0,862,1478.68a169,169,0,0,1-60.28-36.5,22.06,22.06,0,0,0-25.68-3.21l-40.33,22.21-36.34-65.91,40.27-22.22a22,22,0,0,0,11-23.37,172.47,172.47,0,0,1,1.39-70.54A22,22,0,0,0,742,1255.32l-39.36-23.79,39-64.43,39.4,23.81a22.07,22.07,0,0,0,25.79-2.2,168.92,168.92,0,0,1,61.7-34A22,22,0,0,0,884.1,1134l.91-46,75.26,1.48-.91,46a22,22,0,0,0,14.79,21.23,169.38,169.38,0,0,1,60.31,36.5,22.05,22.05,0,0,0,25.68,3.21l40.3-22.24,36.34,65.94Zm89.48-24.2-57.61-104.49a21.94,21.94,0,0,0-29.89-8.65l-46.18,25.42a211.41,211.41,0,0,0-48.59-29.42l1-52.64a22,22,0,0,0-21.58-22.46l-119.31-2.36a22,22,0,0,0-22.47,21.58l-1,52.64a212.2,212.2,0,0,0-49.74,27.47L745.53,1118a22,22,0,0,0-30.27,7.46L653.57,1227.6a22.05,22.05,0,0,0,7.45,30.24l45.12,27.24a213.78,213.78,0,0,0-1.13,56.79l-46.16,25.46a22,22,0,0,0-8.65,29.89l57.61,104.52a22,22,0,0,0,29.92,8.65L783.89,1485a213.42,213.42,0,0,0,48.57,29.42l-1,52.63A22.07,22.07,0,0,0,853,1589.49l119.31,2.36h.47a22,22,0,0,0,22-21.58l1-52.64a212.27,212.27,0,0,0,49.75-27.47l45.11,27.25a22,22,0,0,0,30.24-7.46l61.7-102.13a22,22,0,0,0-7.46-30.24l-45.08-27.24a220.85,220.85,0,0,0,2.42-28.38,213.82,213.82,0,0,0-1.32-28.42l46.16-25.45a22,22,0,0,0,8.65-29.92ZM673.46,965.82a22,22,0,0,1,25.73-2.7l78.16,45.12,76.39-132.31-78.06-45.09a21.92,21.92,0,0,1-10.54-23.59,298.85,298.85,0,0,0,0-122.27,22,22,0,0,1,10.51-23.6l78.09-45.08L777.35,484l-78.16,45.12a22,22,0,0,1-25.74-2.71A293.06,293.06,0,0,0,567.7,465.24a22,22,0,0,1-15.19-20.92V354.17H399.72v90.15a22,22,0,0,1-15.2,20.92A293.6,293.6,0,0,0,278.74,526.4a22,22,0,0,1-25.7,2.71L174.88,484,98.49,616.29l78.06,45.09A22,22,0,0,1,187.09,685a298.8,298.8,0,0,0,0,122.26,22,22,0,0,1-10.54,23.6L98.49,875.93l76.39,132.3L253,963.11a22,22,0,0,1,25.7,2.71A293.09,293.09,0,0,0,384.52,1027a22,22,0,0,1,15.2,21v90.14H552.51v-90.14a22,22,0,0,1,15.19-21,292.68,292.68,0,0,0,105.76-61.13Zm100.93,91.56a22,22,0,0,0,30.08-8.05l98.42-170.44a22,22,0,0,0-8.06-30.11l-83.66-48.3a342.73,342.73,0,0,0,0-108.74l83.66-48.33A21.81,21.81,0,0,0,905.09,630a22,22,0,0,0-2.2-16.71L804.47,442.87a22,22,0,0,0-30.08-8.06l-83.73,48.36a336,336,0,0,0-94.11-54.46V332.15a22,22,0,0,0-22-22H377.7a22,22,0,0,0-22,22v96.56a336.59,336.59,0,0,0-94.14,54.46l-83.72-48.36a22,22,0,0,0-30.08,8.06L49.31,613.34a22.15,22.15,0,0,0-2.2,16.7,21.92,21.92,0,0,0,10.28,13.38l83.67,48.32a342,342,0,0,0,0,108.74L57.4,848.78a22.07,22.07,0,0,0-8.09,30.11l98.42,170.44a22,22,0,0,0,30.08,8.05l83.72-48.33a335.94,335.94,0,0,0,94.14,54.44v96.59a22,22,0,0,0,22,22H574.54a22,22,0,0,0,22-22v-96.59a335.8,335.8,0,0,0,94.14-54.44ZM476.11,875.68A129.57,129.57,0,1,1,605.68,746.11,129.7,129.7,0,0,1,476.11,875.68Zm0-303.18c95.74,0,173.62,77.87,173.62,173.61S571.85,919.73,476.11,919.73,302.5,841.86,302.5,746.11,380.37,572.5,476.11,572.5Z" transform="translate(-46.36 -34.85)"/></svg>