<svg id="Layer_1" data-name="Layer 1" xmlns="http://www.w3.org/2000/svg" viewBox="0 0 1596.15 1446.1"><defs><style>.cls-1{fill:#fffffe;}</style></defs><path class="cls-1" d="M1487.16,1322.51h-1289a59.63,59.63,0,0,1-59.8-59.8V341.77a17.94,17.94,0,1,1,35.88,0v920.94a23.2,23.2,0,0,0,23.38,23.37h1289a23.2,23.2,0,0,0,23.38-23.37V341.77a17.94,17.94,0,1,1,35.88,0v920.94C1547,1295.87,1520.33,1322.51,1487.16,1322.51Z" transform="translate(-44.86 -124.85)"/><path class="cls-1" d="M1571.43,359.71H113.91a69.15,69.15,0,0,1-69-69V289c0-38,31-68.5,69.05-68.5H1572a69.14,69.14,0,0,1,69,69v1.64a69.87,69.87,0,0,1-69.59,68.5ZM113.91,257a32.71,32.71,0,0,0-32.62,32.61v1.64a32.71,32.71,0,0,0,32.62,32.61H1572a32.71,32.71,0,0,0,32.62-32.61v-1.64A32.71,32.71,0,0,0,1572,257Z" transform="translate(-44.86 -124.85)"/><path class="cls-1" d="M842.94,1468.75A18.1,18.1,0,0,1,825,1450.81V1304.57a17.94,17.94,0,1,1,35.88,0v146.24a18.1,18.1,0,0,1-17.94,17.94Z" transform="translate(-44.86 -124.85)"/><path class="cls-1" d="M842.94,1571a69.59,69.59,0,1,1,69.59-69.58A69.71,69.71,0,0,1,842.94,1571Zm0-102.75a33.3,33.3,0,0,0-33.16,33.17,33.16,33.16,0,1,0,66.32,0A33.3,33.3,0,0,0,842.94,1468.2Z" transform="translate(-44.86 -124.85)"/><path class="cls-1" d="M1071.82,257A18.1,18.1,0,0,1,1053.88,239V168.34a7.44,7.44,0,0,0-7.62-7.61H639.62a7.44,7.44,0,0,0-7.62,7.61v70.13a17.94,17.94,0,0,1-35.88,0V168.34a43.62,43.62,0,0,1,43.5-43.49h406.64a43.63,43.63,0,0,1,43.5,43.49v70.13c-.55,10.87-8.7,18.49-17.94,18.49Z" transform="translate(-44.86 -124.85)"/><path class="cls-1" d="M480.87,838.12c-110.36,0-200.61-90.25-200.61-200.61S370.51,436.9,480.87,436.9s200.61,90.25,200.61,200.61S591.23,838.12,480.87,838.12Zm0-364.79A164.18,164.18,0,1,0,645.05,637.51,164,164,0,0,0,480.87,473.33Z" transform="translate(-44.86 -124.85)"/><path class="cls-1" d="M663.54,655.45H480.33a18.09,18.09,0,0,1-17.94-17.94V454.84a17.94,17.94,0,0,1,35.88,0V619H663.54A18.1,18.1,0,0,1,681.48,637C682,647.3,673.87,655.45,663.54,655.45Z" transform="translate(-44.86 -124.85)"/><path class="cls-1" d="M1386,532.59H761.39a17.95,17.95,0,0,1,0-35.89H1386A18.1,18.1,0,0,1,1404,514.65,17.75,17.75,0,0,1,1386,532.59Z" transform="translate(-44.86 -124.85)"/><path class="cls-1" d="M1110.41,655.45h-349a17.94,17.94,0,1,1,0-35.88h349a17.94,17.94,0,0,1,0,35.88Z" transform="translate(-44.86 -124.85)"/><path class="cls-1" d="M971.24,778.31H761.39a17.94,17.94,0,0,1,0-35.88H971.24a18.1,18.1,0,0,1,17.94,17.94C989.72,770.7,981.57,778.31,971.24,778.31Z" transform="translate(-44.86 -124.85)"/><path class="cls-1" d="M677.67,963.16H377a17.95,17.95,0,0,1,0-35.89H677.67a17.95,17.95,0,0,1,0,35.89Z" transform="translate(-44.86 -124.85)"/><path class="cls-1" d="M298.75,963.16a15.78,15.78,0,0,1-12.51-5.44,18.74,18.74,0,0,1-5.43-12.51,15.75,15.75,0,0,1,5.43-12.5c4.35-4.35,10.33-6,16.31-5.44,1.09.55,2.18.55,3.27,1.09s1.63,1.09,2.71,1.63,1.63,1.63,2.72,2.18a18.73,18.73,0,0,1,5.44,12.5,9.17,9.17,0,0,1-.55,3.81c-.54,1.08-.54,2.17-1.08,3.26s-1.09,1.63-1.63,2.72-1.63,1.63-2.18,2.72a17.13,17.13,0,0,1-12.5,6Z" transform="translate(-44.86 -124.85)"/><path class="cls-1" d="M677.67,1086H377a17.94,17.94,0,0,1,0-35.88H677.67a17.94,17.94,0,1,1,0,35.88Z" transform="translate(-44.86 -124.85)"/><path class="cls-1" d="M298.75,1086a15.75,15.75,0,0,1-12.51-5.44,18.72,18.72,0,0,1-5.43-12.5,9.33,9.33,0,0,1,.54-3.81c.54-1.08.54-2.17,1.09-3.26s1.09-1.63,1.63-2.72,1.63-1.63,2.17-2.71c4.35-4.35,10.33-6,16.31-5.44,1.09.54,2.18.54,3.27,1.09s1.63,1.08,2.71,1.63,1.63,1.63,2.72,2.17c.55,1.09,1.63,1.63,2.18,2.72s1.63,1.63,1.63,2.72a7.76,7.76,0,0,0,1.08,3.26,8,8,0,0,1,.55,3.81,15.73,15.73,0,0,1-5.44,12.5,9.42,9.42,0,0,1-2.72,2.17c-1.08.55-1.63,1.63-2.71,1.63-1.09.55-2.18.55-3.27,1.09A5.85,5.85,0,0,1,298.75,1086Z" transform="translate(-44.86 -124.85)"/><path class="cls-1" d="M677.67,1208.88H377a17.94,17.94,0,1,1,0-35.88H677.67a17.94,17.94,0,1,1,0,35.88Z" transform="translate(-44.86 -124.85)"/><path class="cls-1" d="M298.75,1208.88a10.69,10.69,0,0,1-3.81-.54c-1.09-.54-2.17-.54-3.26-1.09s-1.63-1.08-2.72-1.63-1.63-1.63-2.72-2.17c-.54-1.09-1.63-1.63-2.17-2.72s-1.63-1.63-1.63-2.72a7.78,7.78,0,0,0-1.09-3.26,9.33,9.33,0,0,1-.54-3.81,15.75,15.75,0,0,1,5.43-12.5,12,12,0,0,1,2.72-2.17c.55-.55,1.63-1.64,2.72-1.64,1.09-.54,2.17-.54,3.26-1.08a15.35,15.35,0,0,1,7.07,0c1.09.54,2.17.54,3.26,1.08s1.63,1.09,2.72,1.64,1.63,1.63,2.72,2.17a18.72,18.72,0,0,1,5.43,12.5,9.33,9.33,0,0,1-.54,3.81c-.54,1.09-.54,2.17-1.09,3.26s-1.08,1.63-1.63,2.72-1.63,1.63-2.17,2.72c-2.72,3.8-7.61,5.43-12,5.43Z" transform="translate(-44.86 -124.85)"/><path class="cls-1" d="M1293.62,768a6.84,6.84,0,0,1-3.26-.55c-9.78-1.63-15.76-11.41-14.68-21.2l12.51-62.52-66.33-12.5c-9.78-1.63-16.31-11.42-14.68-21.21s11.42-16.31,21.21-14.67l84.26,15.76a21.78,21.78,0,0,1,12,7.61c2.72,4.35,3.81,8.7,2.72,13.59l-15.77,81c-1.63,8.7-9.78,14.68-17.94,14.68Z" transform="translate(-44.86 -124.85)"/><path class="cls-1" d="M1155.54,1208.88a18.09,18.09,0,0,1-17.94-17.94V886.5a26.09,26.09,0,0,1,26.09-26.09h107.64a17.94,17.94,0,1,1,0,35.88h-97.85v294.65C1174,1200.73,1165.87,1208.88,1155.54,1208.88Z" transform="translate(-44.86 -124.85)"/><path class="cls-1" d="M1039.74,1208.88a18.09,18.09,0,0,1-17.94-17.94V946.3a26.1,26.1,0,0,1,26.1-26.09h107.64a17.94,17.94,0,1,1,0,35.88h-97.86V1190.4C1058.22,1200.73,1050.07,1208.88,1039.74,1208.88Z" transform="translate(-44.86 -124.85)"/><path class="cls-1" d="M924.49,1208.88a18.09,18.09,0,0,1-17.94-17.94V1006.65a26.1,26.1,0,0,1,26.09-26.1h107.64a17.94,17.94,0,0,1,0,35.88H942.43v174.51C943,1200.73,934.82,1208.88,924.49,1208.88Z" transform="translate(-44.86 -124.85)"/><path class="cls-1" d="M1271.33,1208.88a9.28,9.28,0,0,1-3.8-.54H808.69a18.09,18.09,0,0,1-17.94-17.94V1065.9a26.1,26.1,0,0,1,26.09-26.09H924.49a17.94,17.94,0,0,1,0,35.88H826.63v96.23h426.76V826.16a26.1,26.1,0,0,1,26.1-26.1h100a26.1,26.1,0,0,1,26.1,26.1V1190.4a18.1,18.1,0,0,1-17.95,17.94h-112a12,12,0,0,1-4.35.54Zm17.94-36.42h79.38v-336h-79.38Z" transform="translate(-44.86 -124.85)"/><path class="cls-1" d="M842.4,963.16c-6,0-12.51-2.72-15.77-8.7-5.44-8.7-2.17-19.57,6.52-25l467-275.63c8.7-5.44,19.57-2.18,25,6.52s2.17,19.57-6.53,25L851.64,961c-3.26,1.09-6.53,2.18-9.24,2.18Z" transform="translate(-44.86 -124.85)"/></svg>